<?xml version="1.0" encoding="UTF-8" standalone="no"?>
<svg
   viewBox="0 0 100 100"
   version="1.1"
   id="svg35"
   xmlns:xlink="http://www.w3.org/1999/xlink"
   xmlns="http://www.w3.org/2000/svg"
   xmlns:svg="http://www.w3.org/2000/svg">
  <defs
     id="defs39" />
  <g
     id="Layer_1_1_">
    <circle
       cx="49.5"
       cy="49.5"
       r="47.584"
       id="circle2" />
    <g
       id="g30">
      <defs
         id="defs5">
        <path
           id="SVGID_1_"
           d="m 49.738,85.357 c -19.595,0 -35.536,-15.942 -35.536,-35.54 0,-19.594 15.941,-35.535 35.536,-35.535 19.593,0 35.536,15.941 35.536,35.535 -0.001,19.6 -15.941,35.54 -35.536,35.54 z" />
      </defs>
      <clipPath
         id="SVGID_2_">
        <use
           xlink:href="#SVGID_1_"
           id="use7"
           style="overflow:visible"
           x="0"
           y="0"
           width="100%"
           height="100%" />
      </clipPath>
      <path
         style="fill:#ffffff;stroke:#000000;stroke-width:2.0048"
         d="m 76.819,17.122 c -9.947,0 -19.896,0 -29.843,0 -1.192,0 -2.385,0 -3.577,0 -1.329,0 -2.806,1.197 -3.903,1.939 -1.688,1.125 -3.477,2.116 -5.134,3.286 -1.689,1.126 -3.459,2.138 -5.134,3.286 -1.072,0.693 -1.972,1.508 -1.972,2.91 0,0.282 0,0.563 0,0.845 0,1.703 0,3.406 0,5.108 0,11.813 0,23.625 0,35.438 0,1.424 0,2.85 0,4.275 0,1.977 1.289,3.359 3.3,3.359 4.707,0 9.413,0 14.12,0 5.679,0 11.357,0 17.036,0 1.479,0 2.71,0.117 4.02,-0.756 0.844,-0.563 1.729,-1.066 2.563,-1.641 1.676,-1.146 3.46,-2.137 5.134,-3.287 0.845,-0.563 1.73,-1.066 2.566,-1.643 0.941,-0.627 2.11,-1.15 2.92,-1.943 1.104,-1.078 0.902,-2.613 0.902,-4.01 0,-2.055 0,-4.109 0,-6.164 0,-6.254 0,-12.508 0,-18.762 0,-4.869 0,-9.737 0,-14.606 0.002,-2.492 0.85,-7.634 -2.998,-7.634"
         clip-path="url(#SVGID_2_)"
         id="path10" />
      <path
         style="fill:#ffffff;stroke:#000000;stroke-width:2.0048"
         d="m 66.179,75.055 c 0,1.664 -1.343,3.014 -3,3.014 H 29.757 c -1.657,0 -3,-1.35 -3,-3.014 V 28.796 c 0,-1.665 1.343,-3.015 3,-3.015 h 33.421 c 1.657,0 3,1.35 3,3.015 v 46.259 z"
         clip-path="url(#SVGID_2_)"
         id="path12" />
      <line
         style="fill:none;stroke:#000000;stroke-width:2;stroke-linecap:round"
         x1="65.5"
         y1="26.943001"
         x2="80.346001"
         y2="19.75"
         clip-path="url(#SVGID_2_)"
         id="line14" />
      <rect
         x="31.266001"
         y="30.854"
         style="stroke:#000000;stroke-width:2.1217"
         width="29.666"
         height="18.667"
         clip-path="url(#SVGID_2_)"
         id="rect16" />
      <path
         style="fill:#ffffff;stroke:#000000;stroke-linecap:round;stroke-linejoin:round"
         d="m 56.342,34.907 v -1.412 c 0,-0.677 -0.549,-1.225 -1.225,-1.225 h -8.779 c -0.676,0 -1.225,0.548 -1.225,1.225 v 1.327 H 34.928 c -0.688,0 -1.247,0.585 -1.247,1.307 v 12.085 c 0,0.722 0.558,1.307 1.247,1.307 h 20.984 c 0.688,0 1.246,-0.585 1.246,-1.307 V 36.128 c 0,-0.562 -0.342,-1.038 -0.816,-1.221 z"
         clip-path="url(#SVGID_2_)"
         id="path18" />
      <rect
         x="31.266001"
         y="54.02"
         style="fill:#ffffff;stroke:#000000;stroke-width:2.1962"
         width="29.666"
         height="20"
         clip-path="url(#SVGID_2_)"
         id="rect20" />
      <rect
         x="23.349001"
         y="38.771"
         style="fill:#ffffff;stroke:#000000;stroke-width:2.1217"
         width="29.666"
         height="18.667"
         clip-path="url(#SVGID_2_)"
         id="rect22" />
      <path
         style="fill:#ffffff;stroke:#000000;stroke-width:1.6456;stroke-linecap:round"
         d="m 43.182,47.493 c 0,0.996 -1.343,1.805 -3,1.805 h -4.25 c -1.657,0 -3,-0.809 -3,-1.805"
         clip-path="url(#SVGID_2_)"
         id="path24" />
      <path
         style="fill:#ffffff;stroke:#000000;stroke-width:1.6456;stroke-linecap:round"
         d="m 51.422,63.922 c 0,0.996 -1.344,1.805 -3,1.805 h -4.25 c -1.657,0 -3,-0.809 -3,-1.805"
         clip-path="url(#SVGID_2_)"
         id="path26" />
      <polygon
         style="fill:#ffffff;stroke:#000000;stroke-width:1.6456;stroke-linecap:round;stroke-linejoin:round"
         points="61.19,49.335 53.088,56.391 53.088,46.557 61.19,39.687 "
         clip-path="url(#SVGID_2_)"
         id="polygon28" />
    </g>
    <path
       style="fill:#ffffff"
       d="m 49.738,6.318 c 24.028,0 43.505,19.478 43.505,43.505 0,24.026 -19.478,43.505 -43.505,43.505 C 25.711,93.328 6.233,73.849 6.233,49.823 6.233,25.796 25.71,6.318 49.738,6.318 m 0,5.438 c -20.991,0 -38.066,17.077 -38.066,38.067 0,20.989 17.076,38.067 38.066,38.067 20.991,0 38.067,-17.078 38.067,-38.067 0,-20.99 -17.076,-38.067 -38.067,-38.067 z"
       id="path32" />
  </g>
</svg>
